<?xml version="1.0" encoding="utf-8"?>
<svg width="200px" height="200px" viewBox="0 0 100 100" xmlns="http://www.w3.org/2000/svg"><defs><linearGradient gradientUnits="userSpaceOnUse" id="color-0" gradientTransform="matrix(0.811252, 0, 0, 0.864993, -103.458537, -22.172371)"><stop style="stop-color: #08d9d6;"/></linearGradient><linearGradient gradientUnits="userSpaceOnUse" id="color-1"><stop style="stop-color: #252a34;"/></linearGradient><linearGradient gradientUnits="userSpaceOnUse" id="color-2"><stop style="stop-color: #ff2e63;"/></linearGradient><linearGradient gradientUnits="userSpaceOnUse" id="color-3" gradientTransform="matrix(18.567157, 26.668987, -0.562767, 6.101749, -215.589, -394.41037)"><stop style="stop-color: #eaeaea;"/></linearGradient><linearGradient gradientUnits="userSpaceOnUse" id="color-4"><stop style="stop-color: #b1b2ff;"/></linearGradient><linearGradient gradientUnits="userSpaceOnUse" id="color-5"><stop style="stop-color: #aac4ff;"/></linearGradient><linearGradient gradientUnits="userSpaceOnUse" id="color-6" gradientTransform="matrix(-0.159157, 0.534588, -0.746882, -0.332332, -316.479279, -50.884642)"><stop style="stop-color: rgb(139, 195, 74);"/></linearGradient><linearGradient gradientUnits="userSpaceOnUse" id="color-7"><stop style="stop-color: #eef1ff;"/></linearGradient><linearGradient gradientUnits="userSpaceOnUse" id="color-8"><stop style="stop-color: #e3fdfd;"/></linearGradient><linearGradient gradientUnits="userSpaceOnUse" id="color-9" gradientTransform="matrix(1, 0, 0, 1, 5.792382, 6.706969)"><stop style="stop-color: #cbf1f5;"/></linearGradient><linearGradient gradientUnits="userSpaceOnUse" id="color-10"><stop style="stop-color: #a6e3e9;"/></linearGradient><linearGradient gradientUnits="userSpaceOnUse" id="color-11"><stop style="stop-color: #71c9ce;"/></linearGradient></defs><style>
    .map-bg { fill: #A2D6F9; /* Light Blue */ }
    .map-lines { stroke: #FFFFFF; stroke-width: 1.5; stroke-linecap: round; }
    .ruler { fill: #F5F5F7; /* Light Grey */ }
    .ruler-marks { stroke: #8A8A8E; stroke-width: 1; } /* Medium Grey */
    .pen-body { fill: #FFD60A; /* Yellow */ }
    .pen-nib { fill: #4A4A4A; /* Dark Grey */ }
  </style><rect width="100" height="100" style="fill: url(&quot;#color-3&quot;);"/><rect x="24.922" width="75.078" height="40.65" style="fill: url(&quot;#color-6&quot;); transform-box: fill-box; transform-origin: 50% 50%;"/><rect width="23.095" height="19.178" style="transform-origin: 11.536px 9.453px; fill: url(&quot;#color-5&quot;);" id="object-0"/><g transform="matrix(0.517344, 0.517344, -0.89104, 0.89104, 235.417374, 28.750818)" style=""/><path stroke-width="0" d="M 66.377 64.844 C 71.378 64.295 77.997 64.498 81.535 64.844 C 83.821 65.067 84.621 65.235 86.496 65.946 C 88.891 66.855 92.361 68.582 94.765 70.356 C 97.063 72.053 99.004 73.929 100.69 76.282 C 102.49 78.792 104.295 82.217 105.1 85.101 C 105.831 87.719 105.924 90.447 105.651 92.818 C 105.399 95.011 104.796 97.016 103.722 98.882 C 102.592 100.845 100.776 102.729 98.899 104.256 C 96.977 105.82 94.74 107.038 92.284 108.115 C 89.636 109.276 87.535 109.87 83.464 110.871 C 77.167 112.42 62.649 115.441 56.455 116.108 C 52.625 116.52 51.097 116.679 48.186 116.108 C 44.893 115.461 40.334 113.537 37.713 111.973 C 35.668 110.754 34.346 109.503 33.165 107.977 C 32.026 106.504 31.197 104.885 30.685 103.016 C 30.126 100.976 29.653 98.912 30.134 96.126 C 30.797 92.281 33.509 85.765 35.921 81.794 C 38.066 78.263 40.785 75.434 43.501 73.112 C 46.004 70.972 48.185 69.468 51.494 68.151 C 55.507 66.553 61.364 65.394 66.377 64.844 Z" style="stroke-width: 2px; fill: url(&quot;#color-9&quot;);"/><rect x="-28.632" y="-23.252" width="107.987" height="13.364" style="fill: rgb(255, 255, 255); transform-origin: 25.299px -16.202px;" transform="matrix(0.25882, -0.965926, 0.965926, 0.25882, -11.915361, 64.785682)"/><rect x="-29.146" y="-23.655" width="109.929" height="13.596" style="fill: rgb(255, 255, 255); transform-origin: 25.457px -16.021px;" transform="matrix(-0.965926, -0.25882, 0.25882, -0.965926, 25.179451, 48.861855)"/><g transform="matrix(0.651037, 0, 0, 0.651037, 47.475349, 68.409042)" style=""><g transform="matrix(-1.363953, -1.228108, 3.522672, -3.912326, 3.502568, -24.319792)" style="transform-origin: -0.703125px 0px;"><rect x="-35" y="-3.5" width="61.609" height="7" rx="3.5" ry="3.5" class="pen-body" style=""/><polygon points="23.586 -3.5 33.586 0 23.586 3.5" class="pen-nib"/></g></g><g style="transform-origin: 149.967335px 268.85463px;" transform="matrix(0.422612, 0.394092, -0.606907, 0.650828, -95.833191, -212.035324)"><rect x="78.504" y="11.689" width="3" height="99.986" style="transform-origin: 79.82px 61.378px; fill: rgb(82, 77, 31);" transform="matrix(-0.000001, -1, -1, 0.000001, 70.445038, 207.666889)"/><rect x="-78.51" y="-11.692" width="3" height="100.005" style="transform-origin: -77.161px 38.038px; fill: rgb(82, 77, 31);" transform="matrix(-0.000001, -1, -1, 0.000001, 227.403175, 223.604888)"/><rect x="-78.505" y="-11.691" width="3" height="100" style="transform-origin: -77.213px 37.946px; fill: rgb(82, 77, 31);" transform="matrix(-0.000001, -1, -1, 0.000001, 227.538491, 238.479384)"/></g></svg>